<svg id="Capa_1" enable-background="new 0 0 512 512" height="512" viewBox="0 0 512 512" width="512" xmlns="http://www.w3.org/2000/svg"><g><path d="m512 256c0 141.38-114.62 256-256 256-40.29 0-78.4-9.31-112.31-25.9-16.71-8.17-95.27-80.11-98.8-85.26-28.32-41.19-44.89-91.08-44.89-144.84 0-34.14 6.68-66.71 18.81-96.49 38.1-93.56 333.2-141.23 344.72-135.89 87.67 40.63 148.47 129.41 148.47 232.38z" fill="#5e54ac"/><path d="m363.53 23.62-240.31 240.3-104.41-104.41c38.1-93.56 129.95-159.51 237.19-159.51 7.52 0 14.97.32 22.33.96 16.97 1.47 33.46 4.59 49.32 9.21 12.37 3.6 24.36 8.11 35.88 13.45z" fill="#efebee"/><path d="m327.65 10.17-229.09 229.09-29.26-29.27 209.03-209.03c16.97 1.47 33.46 4.59 49.32 9.21z" fill="#dae4ea"/><path d="m293.45 425.8-138.01 48.54-11.75 11.76c-34.19-16.71-64.1-40.82-87.65-70.24l108.32-108.32 138.78-77.64 26.96 131.11c5.71 27.72-9.94 55.4-36.65 64.79z" fill="#f9c5ac"/><path d="m194.276 352.109-3.178-3.178 81.165-81.165 26.737 26.737-57.606 57.606c-13.011 13.011-34.107 13.011-47.118 0z" fill="#efb29a"/><g><g><path d="m492.337 126.034c5.112 6.781 4.78 16.207-.82 22.599-58.598 67.04-121.424 129.867-188.465 188.465-6.392 5.6-15.825 5.94-22.599.82-27.69-20.916-53.337-43.876-76.926-68.879-10.96-11.611-21.475-23.667-31.558-36.168-4.158-5.148-8.245-10.38-12.247-15.684-5.126-6.781-4.78-16.207.813-22.606 58.604-67.034 121.431-129.861 188.464-188.466 6.399-5.593 15.818-5.933 22.606-.813 5.303 4.002 10.536 8.089 15.684 12.247 12.509 10.076 24.558 20.598 36.168 31.558 25.004 23.59 47.964 49.236 68.88 76.927z" fill="#dd636e"/><g fill="#2f373b"><path d="m423.458 49.107-219.932 219.932c-10.96-11.611-21.475-23.667-31.558-36.168l215.321-215.322c12.509 10.077 24.558 20.598 36.169 31.558z"/><path d="m263.776 252.054-20.379 20.379c-3.636 3.636-9.532 3.636-13.168 0-3.636-3.636-3.636-9.532 0-13.168l20.379-20.379c3.636-3.636 9.532-3.636 13.168 0 3.636 3.636 3.636 9.532 0 13.168z"/><path d="m303.017 212.813-20.379 20.379c-3.636 3.636-9.532 3.636-13.168 0-3.636-3.636-3.636-9.532 0-13.168l20.379-20.379c3.636-3.636 9.532-3.636 13.168 0 3.636 3.637 3.636 9.532 0 13.168z"/><path d="m342.257 173.573-20.379 20.379c-3.636 3.636-9.532 3.636-13.168 0-3.636-3.636-3.636-9.532 0-13.168l20.379-20.379c3.636-3.636 9.532-3.636 13.168 0 3.636 3.636 3.636 9.532 0 13.168z"/><path d="m381.497 134.333-20.379 20.379c-3.636 3.636-9.532 3.636-13.168 0-3.636-3.636-3.636-9.532 0-13.168l20.379-20.379c3.636-3.636 9.532-3.636 13.168 0 3.637 3.636 3.637 9.531 0 13.168z"/><path d="m333.402 281.596-36.996 36.996c-3.636 3.636-9.532 3.636-13.168 0-3.636-3.636-3.636-9.532 0-13.168l36.996-36.996c3.636-3.636 9.532-3.636 13.168 0 3.637 3.636 3.637 9.532 0 13.168z"/></g><path d="m428.838 114.269-37.966 37.966c-5.619 5.619-5.619 14.73 0 20.349l12.101 12.101c5.619 5.619 14.73 5.619 20.349 0l37.966-37.966c5.619-5.619 5.619-14.73 0-20.349l-12.101-12.101c-5.62-5.619-14.73-5.619-20.349 0z" fill="#f4dd45"/></g><path d="m322.52 230.87-225.65 225.67c-15.09-11.99-28.79-25.64-40.83-40.68-3.89-4.86-7.62-9.87-11.15-15.02l30-29.98-.49-26.8c-.97-52.2 38.44-96.33 90.41-101.25l28.83-2.73 69.04-69.04c8.26-8.26 19.09-12.39 29.92-12.39 10.82 0 21.66 4.13 29.92 12.39 16.52 16.51 16.52 43.32 0 59.83z" fill="#f9c5ac"/><path d="m330.52 182.13c-5.91-2.93-12.37-4.39-18.82-4.39-10.83 0-21.66 4.13-29.92 12.39l-69.04 69.05-2.13.19c-67.04 6.35-117.86 63.27-116.63 130.57l-32.49 32.49c-1.86-2.16-3.67-4.35-5.45-6.57-3.89-4.86-7.62-9.87-11.15-15.02l30-29.98-.49-26.8c-.97-52.2 38.44-96.33 90.41-101.25l28.83-2.73 69.04-69.04c8.26-8.26 19.09-12.39 29.92-12.39 10.82 0 21.65 4.11 29.92 12.39 3.34 3.34 6.01 7.09 8 11.09z" fill="#efb29a"/></g><g fill="#e7a52e"><path d="m122.151 189.434c.854 1.13 1.411 2.507 1.54 4.022.366 4.28-2.806 8.047-7.086 8.413l-44.761 3.828c-4.279.367-8.046-2.807-8.412-7.086-.366-4.28 2.806-8.047 7.086-8.412l44.761-3.829c2.764-.236 5.314 1.003 6.872 3.064z"/><path d="m135.715 164.356c1.926 2.548 2.151 6.132.299 8.956-2.355 3.592-7.176 4.596-10.768 2.241l-43.78-28.695c-3.592-2.357-4.596-7.176-2.241-10.769 2.355-3.592 7.176-4.596 10.768-2.241l43.78 28.695c.768.504 1.418 1.12 1.942 1.813z"/><path d="m134.247 101.289c.318.42.597.879.831 1.375l19.389 41.033c1.835 3.884.175 8.52-3.709 10.355-3.884 1.834-8.52.172-10.355-3.709l-19.389-41.033c-1.835-3.884-.175-8.52 3.709-10.355 3.39-1.601 7.35-.541 9.524 2.334z"/></g></g></svg>