<svg id="Capa_1" enable-background="new 0 0 497 497" height="512" viewBox="0 0 497 497" width="512" xmlns="http://www.w3.org/2000/svg"><g><path d="m395.27 347.829h-373.804c-11.855 0-21.466-9.61-21.466-21.466v-234.144c0-11.855 9.611-21.466 21.466-21.466h373.804c11.855 0 21.466 9.611 21.466 21.466v234.145c0 11.855-9.611 21.465-21.466 21.465z" fill="#7acaa6"/><path d="m405.27 70.753h-30c11.855 0 21.466 9.611 21.466 21.466v234.145c0 11.855-9.61 21.466-21.466 21.466h30c11.855 0 21.466-9.611 21.466-21.466v-234.145c0-11.855-9.611-21.466-21.466-21.466z" fill="#57be92"/><g><path d="m171.723 305.209h-137.378c-4.142 0-7.5-3.358-7.5-7.5s3.358-7.5 7.5-7.5h137.378c4.142 0 7.5 3.358 7.5 7.5s-3.358 7.5-7.5 7.5z" fill="#7a6d79"/></g><g><path d="m103.067 263.96h-68.722c-4.142 0-7.5-3.358-7.5-7.5s3.358-7.5 7.5-7.5h68.723c4.142 0 7.5 3.358 7.5 7.5-.001 4.142-3.358 7.5-7.501 7.5z" fill="#7a6d79"/></g><path d="m94.481 183.532h-51.55c-4.742 0-8.586-3.844-8.586-8.586v-51.55c0-4.742 3.844-8.586 8.586-8.586h51.55c4.742 0 8.586 3.844 8.586 8.586v51.55c0 4.742-3.844 8.586-8.586 8.586z" fill="#fee97d"/><path d="m465.534 426.247h-373.804c-11.855 0-21.466-9.611-21.466-21.466v-168.017l10-17.53-10-26.007v-22.591c0-11.855 9.611-21.466 21.466-21.466h373.805c11.855 0 21.466 9.61 21.466 21.466v234.145c-.001 11.856-9.612 21.466-21.467 21.466z" fill="#ecf4fe"/><path d="m475.534 149.171h-30c11.855 0 21.466 9.61 21.466 21.466v234.145c0 11.855-9.611 21.466-21.466 21.466h30c11.855 0 21.466-9.611 21.466-21.466v-168.018l-10-21.768 10-21.768v-22.591c0-11.855-9.611-21.466-21.466-21.466z" fill="#d9ebfe"/><path d="m467 236.764h-396.736v-43.536h396.736l10 21.768z" fill="#7a6d79"/><path d="m467 193.228h30v43.536h-30z" fill="#685e68"/><g><path d="m459.5 287.01h-36.923c-4.142 0-7.5-3.358-7.5-7.5s3.358-7.5 7.5-7.5h36.923c4.142 0 7.5 3.358 7.5 7.5s-3.358 7.5-7.5 7.5z" fill="#7acaa6"/></g><g><path d="m395.653 287.01h-36.923c-4.142 0-7.5-3.358-7.5-7.5s3.358-7.5 7.5-7.5h36.923c4.142 0 7.5 3.358 7.5 7.5s-3.358 7.5-7.5 7.5z" fill="#7acaa6"/></g><g><path d="m331.806 287.01h-36.923c-4.142 0-7.5-3.358-7.5-7.5s3.358-7.5 7.5-7.5h36.923c4.142 0 7.5 3.358 7.5 7.5s-3.358 7.5-7.5 7.5z" fill="#7acaa6"/></g><path d="m410.466 386.247h-51.55c-4.742 0-8.586-3.844-8.586-8.586v-31.55c0-4.742 3.844-8.586 8.586-8.586h51.55c4.742 0 8.586 3.844 8.586 8.586v31.55c.001 4.742-3.844 8.586-8.586 8.586z" fill="#7acaa6"/><path d="m458.414 386.247h-51.55c-4.742 0-8.586-3.844-8.586-8.586v-31.55c0-4.742 3.844-8.586 8.586-8.586h51.55c4.742 0 8.586 3.844 8.586 8.586v31.55c0 4.742-3.844 8.586-8.586 8.586z" fill="#7a6d79"/><g><path d="m183.368 355.329h-68.535c-4.142 0-7.5-3.358-7.5-7.5s3.358-7.5 7.5-7.5h68.535c4.142 0 7.5 3.358 7.5 7.5s-3.358 7.5-7.5 7.5z" fill="#7a6d79"/></g></g></svg>